<?xml version="1.0" encoding="UTF-8"?>
<svg id="Layer_2" data-name="Layer 2" xmlns="http://www.w3.org/2000/svg" viewBox="0 0 1623.8 1713.36">
  <defs>
    <style>
      .cls-1 {
        stroke-width: 0px;
      }
    </style>
  </defs>
  <g id="Layer_1-2" data-name="Layer 1">
    <path class="cls-1" d="m1328.51,1712.02c91.64-93.15,165.75-203.18,217.86-323,25.85-59.42,46.41-121.11,61.01-184.25,14.37-62.11,28.86-133.62-1.24-193.45-24.68-49.07-75.19-76.36-126.45-89.88-58.51-15.43-120.83-16.12-180.91-13.81-133.93,5.15-266.54,36.66-388.77,91.55-61.39,27.57-120.11,61.13-174.87,100.25-52.76,37.69-104.91,82.01-129.45,143.82-11.81,29.74-16.63,62.72-10.57,94.35,5.93,30.96,22.76,58.28,42.99,81.98s46.01,47.01,71.21,67.72,51.85,39.71,80.51,55.26c54.19,29.41,115.78,45.22,177.25,33.81,55.78-10.36,105.44-41.66,145.36-81.12,92.09-91.05,139.6-223.48,155.18-349.81,8.47-68.66,7.37-139.2-5.29-207.29-11.61-62.41-35.02-124.59-78.94-171.61-79.46-85.05-205.04-99.39-314.65-83.77-129.72,18.49-253.34,77.31-363.06,146.87-56.98,36.13-111.34,76.29-163.84,118.63-54.66,44.08-107.92,90.18-157.68,139.76-49.46,49.29-97.21,102.49-134.82,161.54-34.37,53.97-61.53,120.4-43.7,184.94,15.33,55.48,61.02,95.46,110.73,120.79,59.15,30.13,127.11,44.14,193.04,47.56,136.88,7.1,267.22-40.17,379.14-116.69,111.25-76.06,206.58-176.11,287.72-283.14,84.42-111.36,158.18-236.09,198.3-370.67,19.96-66.96,30.98-137.04,28-207-2.63-61.72-16.51-122.54-40.18-179.56-45.96-110.73-125.78-205.81-222.29-276.19-109.09-79.55-239.36-126.64-371.53-150.19C503.36,7.82,437.24,1.76,371.04,0c-5.79-.15-5.79,8.85,0,9,132.69,3.52,266.09,24.48,389.96,73.44,115.44,45.63,220.22,116.49,299.55,212.54,75.71,91.66,126.23,204.86,132.72,324.34,7.46,137.37-39.33,271.81-103.58,391.3-64.64,120.19-147.2,231.1-242.6,328.61-88.19,90.13-190.21,171.33-308.8,217.21-62.91,24.34-129.6,37.79-197.13,38.15s-138.19-10.87-200.71-37.89c-50.93-22.01-101.49-57.76-121.86-111.5-24.12-63.63,1.46-131.31,35.36-186.07,35.87-57.93,82.27-109.97,130.08-158.24s99.07-93.1,151.64-136.09c101.56-83.07,210.77-158.74,331.23-211.82,108.21-47.68,230.91-81.4,349.71-61.16,54.09,9.21,106.61,30.6,147.34,68.09,46.45,42.76,72.46,102,86.05,162.73,29.6,132.3,12.99,276.33-37.83,401.31-42.19,103.75-119.61,212.48-234.29,240.87-61.08,15.12-123.64,1.39-178.54-27.4-55.63-29.17-107.32-71.32-149.33-117.92-21.38-23.71-39.53-51.19-45.92-82.91s-.34-67.5,13.18-97.82c27.15-60.86,82.04-103.85,135.5-140.76,107.32-74.11,228.92-126.97,355.99-156.1,63.33-14.52,127.99-23.08,192.93-25.39,58.77-2.09,119.62-1.38,176.79,13.91,52.57,14.05,103.84,43.29,124.73,96.2,24.13,61.11,6.5,132.43-8.79,193.57-30.59,122.34-83.39,238.94-154.73,342.92-34.9,50.87-74.28,98.56-117.54,142.54-4.07,4.13,2.29,10.5,6.36,6.36h0Z"/>
  </g>
</svg>