<svg width="40" height="41" viewBox="0 0 40 41" fill="none" xmlns="http://www.w3.org/2000/svg">
<path d="M12.4051 9.01318C13.4701 9.01318 14.4551 9.09652 15.3551 9.34318C16.2567 9.50818 16.9951 9.83818 17.6501 10.2499C18.3067 10.6621 18.7984 11.2393 19.1251 11.9815C19.4534 12.7232 19.6184 13.6315 19.6184 14.6198C19.6184 15.7748 19.3717 16.7632 18.7984 17.5048C18.3067 18.2482 17.4867 18.9065 16.5034 19.4015C17.8967 19.8149 18.9617 20.5565 19.6184 21.5449C20.2751 22.5332 20.6834 23.7715 20.6834 25.1732C20.6834 26.3282 20.4367 27.3165 20.0267 28.1415C19.6184 28.9665 18.9617 29.7082 18.2234 30.2032C17.4211 30.7332 16.5346 31.1231 15.6017 31.3565C14.6184 31.6049 13.6351 31.7698 12.6517 31.7698H1.66675V9.01318H12.4051ZM11.7484 18.2465C12.6501 18.2465 13.3884 17.9999 13.9617 17.5882C14.5351 17.1765 14.7817 16.4332 14.7817 15.5265C14.7817 15.0315 14.6984 14.5365 14.5351 14.2082C14.3717 13.8799 14.1251 13.6299 13.7984 13.3832C13.4644 13.1956 13.1052 13.057 12.7317 12.9715C12.3217 12.8882 11.9134 12.8882 11.4201 12.8882H6.66675V18.2482L11.7484 18.2465ZM11.9951 27.9765C12.4867 27.9765 12.9784 27.8932 13.3884 27.8115C13.7984 27.7282 14.2084 27.5648 14.5351 27.3165C14.8677 27.0738 15.1469 26.7651 15.3551 26.4098C15.5184 25.9982 15.6834 25.5032 15.6834 24.9265C15.6834 23.7715 15.3551 22.9465 14.7001 22.3699C14.0434 21.8749 13.1417 21.6282 12.0767 21.6282H6.66675V27.9782L11.9951 27.9765ZM27.8151 27.8932C28.4706 28.5532 29.454 28.8832 30.7651 28.8832C31.6667 28.8832 32.4867 28.6365 33.1417 28.2248C33.7984 27.7293 34.2084 27.2343 34.3717 26.7398H38.3884C37.7318 28.7182 36.7484 30.1199 35.4384 31.0265C34.1251 31.8515 32.5684 32.3465 30.6834 32.3465C29.4775 32.3483 28.282 32.1245 27.1584 31.6865C26.147 31.3093 25.2454 30.6861 24.5351 29.8732C23.7723 29.1154 23.2093 28.1803 22.8967 27.1515C22.4867 26.0798 22.3217 24.9265 22.3217 23.6065C22.3217 22.3699 22.4867 21.2165 22.8967 20.1432C23.29 19.1092 23.874 18.1582 24.6184 17.3398C25.3551 16.5982 26.2567 15.9399 27.2401 15.5265C28.3347 15.087 29.5039 14.8629 30.6834 14.8665C32.0767 14.8665 33.3067 15.1149 34.3717 15.6915C35.4384 16.2682 36.2567 16.9282 36.9117 17.9182C37.5684 18.8249 38.0617 19.8965 38.3884 21.0515C38.5518 22.2049 38.6334 23.3598 38.5517 24.6782H26.6667C26.6667 25.9982 27.1584 27.2348 27.8151 27.8948M32.9784 19.2382C32.4051 18.6615 31.5034 18.3315 30.4367 18.3315C29.8113 18.3221 29.1928 18.4633 28.6334 18.7432C28.1417 18.9915 27.8151 19.3215 27.4867 19.6515C27.1831 19.969 26.9832 20.3712 26.9134 20.8049C26.8301 21.2182 26.7484 21.5465 26.7484 21.8765H34.1251C33.9617 20.6398 33.5517 19.8165 32.9784 19.2382ZM25.7651 10.5799H34.9451V12.8065H25.7667L25.7651 10.5799Z" fill="#1E1E1E"/>
</svg>
