<svg width="40" height="41" viewBox="0 0 40 41" fill="none" xmlns="http://www.w3.org/2000/svg">
<path fill-rule="evenodd" clip-rule="evenodd" d="M19.9999 3.43018C29.2049 3.43018 36.6666 10.8918 36.6666 20.0968C36.6666 29.3018 29.2049 36.7635 19.9999 36.7635C10.7949 36.7635 3.33325 29.3018 3.33325 20.0968C3.33325 10.8918 10.7949 3.43018 19.9999 3.43018ZM22.6949 23.4035C18.4466 24.6544 14.7325 27.2778 12.1333 30.8635C14.4148 32.5359 17.1711 33.4352 19.9999 33.4302C21.7303 33.4313 23.4444 33.0956 25.0466 32.4418C24.5205 29.3673 23.7337 26.343 22.6949 23.4018V23.4035ZM25.9916 22.7318C26.8783 25.3035 27.5916 27.9568 28.1149 30.6785C30.5606 28.804 32.2814 26.1402 32.9849 23.1402C30.6955 22.5971 28.3287 22.4589 25.9916 22.7318ZM20.5849 18.2835C16.1254 19.8571 11.3714 20.4173 6.66825 19.9235L6.66659 20.0968C6.66659 23.3085 7.80325 26.2552 9.69492 28.5568C12.6551 24.6276 16.7799 21.7329 21.4816 20.2852C21.196 19.6126 20.8971 18.9458 20.5849 18.2852V18.2835ZM30.8133 12.2952C28.6551 14.1808 26.2509 15.7647 23.6666 17.0035C24.0566 17.8368 24.4277 18.6796 24.7799 19.5318C27.6133 19.0985 30.5299 19.1885 33.3299 19.8002C33.2743 17.1007 32.3963 14.4825 30.8133 12.2952ZM14.2899 8.04684C12.548 8.87473 11.0058 10.0698 9.76929 11.55C8.53279 13.0301 7.63126 14.7604 7.12659 16.6218C11.1523 17.0292 15.2185 16.5747 19.0549 15.2885C17.6596 12.753 16.0663 10.3316 14.2899 8.04684ZM19.9999 6.76351C19.1988 6.76351 18.4183 6.83184 17.6583 6.96851C19.3271 9.21033 20.8326 11.5692 22.1633 14.0268C24.4669 12.9303 26.6118 11.5276 28.5399 9.85684C26.1452 7.85427 23.1216 6.75909 19.9999 6.76351Z" fill="#1E1E1E"/>
</svg>
