<svg width="40" height="41" viewBox="0 0 40 41" fill="none" xmlns="http://www.w3.org/2000/svg">
<path d="M12.9999 3.43018H26.9999C32.3333 3.43018 36.6666 7.76351 36.6666 13.0968V27.0968C36.6666 29.6606 35.6481 32.1194 33.8353 33.9322C32.0224 35.7451 29.5637 36.7635 26.9999 36.7635H12.9999C7.66659 36.7635 3.33325 32.4302 3.33325 27.0968V13.0968C3.33325 10.5331 4.3517 8.07433 6.16455 6.26148C7.9774 4.44863 10.4362 3.43018 12.9999 3.43018ZM12.6666 6.76351C11.0753 6.76351 9.54916 7.39565 8.42394 8.52087C7.29873 9.64609 6.66659 11.1722 6.66659 12.7635V27.4302C6.66659 30.7468 9.34992 33.4302 12.6666 33.4302H27.3333C28.9245 33.4302 30.4507 32.798 31.5759 31.6728C32.7011 30.5476 33.3333 29.0215 33.3333 27.4302V12.7635C33.3333 9.44684 30.6499 6.76351 27.3333 6.76351H12.6666ZM28.7499 9.26351C29.3025 9.26351 29.8324 9.483 30.2231 9.8737C30.6138 10.2644 30.8333 10.7943 30.8333 11.3468C30.8333 11.8994 30.6138 12.4293 30.2231 12.82C29.8324 13.2107 29.3025 13.4302 28.7499 13.4302C28.1974 13.4302 27.6675 13.2107 27.2768 12.82C26.8861 12.4293 26.6666 11.8994 26.6666 11.3468C26.6666 10.7943 26.8861 10.2644 27.2768 9.8737C27.6675 9.483 28.1974 9.26351 28.7499 9.26351ZM19.9999 11.7635C22.2101 11.7635 24.3297 12.6415 25.8925 14.2043C27.4553 15.7671 28.3333 17.8867 28.3333 20.0968C28.3333 22.307 27.4553 24.4266 25.8925 25.9894C24.3297 27.5522 22.2101 28.4302 19.9999 28.4302C17.7898 28.4302 15.6702 27.5522 14.1074 25.9894C12.5446 24.4266 11.6666 22.307 11.6666 20.0968C11.6666 17.8867 12.5446 15.7671 14.1074 14.2043C15.6702 12.6415 17.7898 11.7635 19.9999 11.7635ZM19.9999 15.0968C18.6738 15.0968 17.4021 15.6236 16.4644 16.5613C15.5267 17.499 14.9999 18.7708 14.9999 20.0968C14.9999 21.4229 15.5267 22.6947 16.4644 23.6324C17.4021 24.5701 18.6738 25.0968 19.9999 25.0968C21.326 25.0968 22.5978 24.5701 23.5355 23.6324C24.4731 22.6947 24.9999 21.4229 24.9999 20.0968C24.9999 18.7708 24.4731 17.499 23.5355 16.5613C22.5978 15.6236 21.326 15.0968 19.9999 15.0968Z" fill="#1E1E1E"/>
</svg>
