<svg width="40" height="41" viewBox="0 0 40 41" fill="none" xmlns="http://www.w3.org/2000/svg">
<path d="M12.7541 9.93309C12.7538 10.7032 12.4475 11.4417 11.9026 11.986C11.3578 12.5303 10.619 12.8358 9.84889 12.8354C9.07875 12.8351 8.34031 12.5288 7.79601 11.9839C7.25171 11.4391 6.94615 10.7003 6.94653 9.93019C6.94692 9.16005 7.25322 8.42161 7.79807 7.87731C8.34291 7.33301 9.08165 7.02745 9.85179 7.02783C10.6219 7.02822 11.3604 7.33452 11.9047 7.87936C12.449 8.42421 12.7545 9.16295 12.7541 9.93309ZM12.8413 14.9857H7.03365V33.1635H12.8413V14.9857ZM22.0173 14.9857H16.2387V33.1635H21.9592V23.6245C21.9592 18.3106 28.8848 17.8169 28.8848 23.6245V33.1635H34.6198V21.6499C34.6198 12.6917 24.3694 13.0256 21.9592 17.4249L22.0173 14.9857Z" fill="#1E1E1E"/>
</svg>
